<svg viewBox="-5 -5 208 145" xmlns="http://www.w3.org/2000/svg" xmlns:svg="http://www.w3.org/2000/svg"><defs><path id="badge" d="M55 23.5V113l44.5 12L144 113V23.5l-44.5-12z"/><g id="left-wing"><use href="#left-wing-bottom" stroke="#fff" stroke-width="5"/><path id="left-wing-bottom" d="m36.5 105 16.5 6v3.5l19.5 5L42 136z"/><use href="#left-wing-middle" stroke="#fff" stroke-width="5"/><path id="left-wing-middle" d="M29.2 44.8.0 90l53 19.4V77z"/><use href="#left-wing-top" stroke="#fff" stroke-width="5"/><path id="left-wing-top" d="M13.5 20.5 53 74V22l21-5.5L62 0z"/></g></defs><use href="#left-wing" style="fill:#0a1c39"/><use href="#left-wing" style="fill:#0a1c39" transform="translate(199,0) scale(-1,1)"/><use href="#badge" stroke="#fff" stroke-width="5"/><use href="#badge" style="fill:#0a1c39"/><path id="mouth" style="fill:#fff" d="m104.5 76 6.5 14 8.5-5.5zM114 65.5l11 6.983614L103.3 72.5zM93 58l11.5 7.5L96 71l10 22-14.5 9-15-33.5z"/><path id="crete-light" style="fill:#ef7276" d="m89.2 46 5-10.5 13.3 9.9 7-4.6 5.5 15.3-10.16916 6.40933L93.5 51.9l-9.2 5.9L79.5 47z"/><path id="crete-dark" style="fill:#d63547" d="m89.2 46 4.3 5.9.7-16.4 13.3 9.9L120 56.1l-10.16916 6.40933L107.5 45.4l-14 6.5-14-4.9z"/></svg>