<svg width="360" height="290" viewBox="0 0 38.92 31.36" xmlns="http://www.w3.org/2000/svg"><style>g .st0{fill:#ef7276}g .st1{fill:#333}g:target .st1{fill:#eee}</style><g id="dark"><path class="st0" d="m28.57 9.515c0 .01547-.0029.03023-.0047.04462.0076.0637.0032.1288-.01979.1929-.01476.04282-.3825 1.061-1.522 1.432-.2703.08817-.5585.1324-.8626.1324-.9767.0-2.126-.4524-3.431-1.352-3.781-2.607-6.082-.1699-6.179-.06514-.1198.131-.3084.1753-.4739.1112-.1652-.06406-.2749-.2224-.2749-.4002v-7.603c0-.00648.0014-.0126.0018-.01943-719e-6-.01476.0036-.02843.0043-.04318.0014-.01008.0022-.02015.0043-.02951.0094-.08637.03743-.1717.1-.2411.02843-.03167 2.886-3.115 7.306-.06622 1.458 1.005 2.681 1.389 3.538 1.11.7266-.2368.9738-.8914.9756-.8982.06945-.1976.2706-.3178.4786-.2818.2069.03491.3581.2145.3581.4246z"/><path class="st1" d="m13.82.0c-.317.0-.574.2573-.574.574v1.195c0 .2314.1373.4289.3345.5204v25.42c-1.699.1267-3.227.7029-3.227 1.695.0 1.13 1.984 1.721 3.945 1.721 1.96.0 3.945-.5911 3.945-1.721.0-.9918-1.529-1.569-3.228-1.695v-25.42c.1968-.09141.3347-.2893.3347-.5204v-1.195c0-.3167-.2571-.574-.5738-.574h-.956zm-.2395 28.57v.8331h1.435V28.57c1.543.122 2.367.615 2.367.8331.0.2505-1.08.8608-3.084.8608-2.003.0-3.084-.6103-3.084-.8608.0-.2181.8243-.7118 2.367-.8331z"/></g></svg>