<svg width="227.8mm" height="192.43mm" viewBox="0 0 277.8 198.43" xmlns="http://www.w3.org/2000/svg"><style>g .st0{fill:#25426d}g:target .st0{fill:#fff}g .st1{fill:#11274a}g:target .st1{fill:#dde1e2}g .st2{fill:#fff}g:target .st2{fill:#11274a}g .st3{fill:#cb8f9c}g:target .st3{fill:#cb8f9c}g .st4{fill:#cb475b}g:target .st4{fill:#cb475b}</style><g id="dark"><path class="st0" d="M5.91 198.43H4.73v-4.25h1.18v4.25zM36.65 194.17h-1.18v4.25h1.18v-4.25zm2.36.0h-1.18v4.25h1.18v-4.25zm28.37.0H66.2v4.25h1.18v-4.25zm2.36.0h-1.18v4.25h1.18v-4.25zm-61.47.0H7.09v4.25h1.18v-4.25zm-4.72.0v4.25H0v-4.25H3.55zM2.36 195.24H1.18v2.13h1.18v-2.13zM15.37 194.17h-1.18v4.25h1.18v-4.25zm-2.37.0v4.25H9.46v-4.25H13zM11.82 195.24h-1.18v2.13h1.18v-2.13zM60.29 194.17h-1.18v4.25h1.18v-4.25zm4.73.0v4.25h-3.55v-4.25h3.55zM63.83 195.24h-1.18v2.13h1.18v-2.13zM20.1 194.17v4.25h-3.55v-4.25H20.1zM18.91 195.24h-1.18v2.13h1.18v-2.13zM24.82 194.17v4.25h-3.55v-4.25h3.55zM23.64 195.24h-1.18v2.13h1.18v-2.13zM29.55 194.17v4.25H26v-4.25h3.55zM28.37 195.24h-1.18v2.13h1.18v-2.13zM34.28 194.17v4.25h-3.55v-4.25h3.55zM33.1 195.24h-1.18v2.13h1.18v-2.13zM43.74 194.17v4.25h-3.55v-4.25h3.55zM42.56 195.24h-1.18v2.13h1.18v-2.13zM48.47 194.17v4.25h-3.55v-4.25h3.55zM47.28 195.24H46.1v2.13h1.18v-2.13zM53.19 194.17v4.25h-3.55v-4.25h3.55zM52.01 195.24h-1.18v2.13h1.18v-2.13zM57.92 194.17v4.25h-3.55v-4.25h3.55zM56.74 195.24h-1.18v2.13h1.18v-2.13zM74.47 194.17v4.25h-3.55v-4.25h3.55zM73.29 195.24h-1.18v2.13h1.18v-2.13zM86.29 194.17h-1.18v4.25h1.18v-4.25zM88.66 194.17h-1.18v4.25h1.18v-4.25zm4.73.0v4.25h-3.55v-4.25h3.55zM92.2 195.24h-1.18v2.13h1.18v-2.13zM95.75 194.17h-1.18v4.25h1.18v-4.25zm2.36.0h-1.18v4.25h1.18v-4.25zm14.19.0h-1.18v4.25h1.18v-4.25zm2.36.0h-1.18v4.25h1.18v-4.25zM121.76 194.17h-1.18v4.25h1.18v-4.25zm2.36.0h-1.18v4.25h1.18v-4.25zM126.49 194.17h-1.18v4.25h1.18v-4.25zm11.82.0h-1.18v4.25h1.18v-4.25zm11.82.0h-1.18v4.25h1.18v-4.25zM152.49 194.17h-1.18v4.25h1.18v-4.25zm7.09.0h-1.18v4.25h1.18v-4.25zM161.95 194.17h-1.18v4.25h1.18v-4.25zM164.31 194.17h-1.18v4.25h1.18v-4.25zm2.37.0h-1.18v4.25h1.18v-4.25zm-63.84.0v4.25H99.3v-4.25H102.84zM101.66 195.24h-1.18v2.13h1.18v-2.13zM105.21 194.17h-1.18v4.25h1.18v-4.25zm4.73.0v4.25h-3.55v-4.25h3.55zM108.75 195.24h-1.18v2.13h1.18v-2.13zM119.39 194.17v4.25h-3.55v-4.25h3.55zM118.21 195.24h-1.18v2.13h1.18v-2.13zM131.21 194.17v4.25h-3.55v-4.25h3.55zM130.03 195.24h-1.18v2.13h1.18v-2.13zM135.94 194.17v4.25h-3.55v-4.25H135.94zM134.76 195.24h-1.18v2.13h1.18v-2.13zM143.03 194.17v4.25h-3.55v-4.25H143.03zM141.85 195.24h-1.18v2.13h1.18v-2.13zM147.76 194.17v4.25h-3.55v-4.25H147.76zM146.58 195.24h-1.18v2.13h1.18v-2.13zM157.22 194.17v4.25h-3.55v-4.25H157.22zM156.04 195.24h-1.18v2.13h1.18v-2.13zM173.77 194.17h-1.18v4.25h1.18v-4.25zM176.13 194.17h-1.18v4.25h1.18v-4.25zm2.37.0h-1.18v4.25h1.18v-4.25zm26 0h-1.18v4.25h1.18v-4.25zm2.37.0h-1.18v4.25h1.18v-4.25zm-35.46.0v4.25h-3.55v-4.25H171.41zM170.22 195.24h-1.18v2.13h1.18v-2.13zM79.2 194.17v4.25h-3.55v-4.25H79.2zM78.02 195.24h-1.18v2.13h1.18v-2.13zM83.93 194.17v4.25h-3.55v-4.25h3.55zM82.75 195.24h-1.18v2.13h1.18v-2.13zM183.23 194.17v4.25h-3.55v-4.25H183.23zM182.04 195.24h-1.18v2.13h1.18v-2.13zM187.96 194.17v4.25h-3.55v-4.25H187.96zM186.77 195.24h-1.18v2.13h1.18v-2.13zM192.68 194.17v4.25h-3.55v-4.25H192.68zM191.5 195.24h-1.18v2.13h1.18v-2.13zM197.41 194.17v4.25h-3.55v-4.25H197.41zM196.23 195.24h-1.18v2.13h1.18v-2.13zM202.14 194.17v4.25h-3.55v-4.25H202.14zM200.96 195.24h-1.18v2.13h1.18v-2.13zM244.7 194.17v4.25h-3.55v-4.25H244.7zM243.51 195.24h-1.18v2.13h1.18v-2.13zM249.42 194.17v4.25h-3.55v-4.25H249.42zM248.24 195.24h-1.18v2.13h1.18v-2.13zM254.15 194.17v4.25h-3.55v-4.25H254.15zM252.97 195.24h-1.18v2.13h1.18v-2.13zM213.96 194.17h-1.18v4.25h1.18v-4.25zm2.37.0h-1.18v4.25h1.18v-4.25zM218.69 194.17h-1.18v4.25h1.18v-4.25zM221.05 194.17h-1.18v4.25h1.18v-4.25zM211.6 194.17v4.25h-3.55v-4.25H211.6zM210.42 195.24h-1.18v2.13h1.18v-2.13zM228.15 194.17h-1.18v4.25h1.18v-4.25zM230.51 194.17h-1.18v4.25h1.18v-4.25zM225.78 194.17v4.25h-3.55v-4.25H225.78zM224.6 195.24h-1.18v2.13h1.18v-2.13zM237.6 194.17h-1.18v4.25h1.18v-4.25zm2.37.0h-1.18v4.25h1.18v-4.25zm16.55.0h-1.18v4.25h1.18v-4.25zM263.61 194.17v4.25h-3.55v-4.25H263.61zM262.43 195.24h-1.18v2.13h1.18v-2.13zM268.34 194.17v4.25h-3.55v-4.25H268.34zM267.16 195.24h-1.18v2.13h1.18v-2.13zM270.7 194.17h-1.18v4.25h1.18v-4.25zM275.43 194.17v4.25h-3.55v-4.25H275.43zM274.25 195.24h-1.18v2.13h1.18v-2.13zM277.8 194.17h-1.18v4.25h1.18v-4.25zm-18.92.0h-1.18v4.25h1.18v-4.25zm-23.64.0v4.25h-3.55v-4.25H235.24zM234.06 195.24h-1.18v2.13h1.18v-2.13z"/><g id="acropole"><rect x="249.45" y="82.2" transform="matrix(-1 -4.491886e-11 4.491886e-11 -1 515.9055 257.9529)" class="st0" width="17.01" height="93.54"/><rect x="215.43" y="82.2" transform="matrix(-1 -4.491886e-11 4.491886e-11 -1 447.8739 257.9529)" class="st0" width="17.01" height="93.54"/><rect x="181.42" y="82.2" transform="matrix(-1 -4.486557e-11 4.486557e-11 -1 379.8424 257.9529)" class="st0" width="17.01" height="93.54"/><polygon class="st0" points="147.4,175.75 164.41,175.75 164.41,82.2 155.91,82.2 155.91,90.71 147.4,90.71"/><polygon class="st0" points="113.39,175.75 130.39,175.75 130.39,82.2 113.39,82.2 113.39,119.06 121.89,119.06 121.89,136.06 113.39,136.06"/><polygon class="st0" points="269.29,70.87 246.61,70.87 249.45,79.37 266.46,79.37"/><polygon class="st0" points="235.28,70.87 212.6,70.87 215.43,79.37 232.44,79.37"/><polygon class="st0" points="201.26,70.87 178.58,70.87 181.42,79.37 198.43,79.37"/><polygon class="st0" points="167.24,70.87 144.57,70.87 147.4,79.37 164.41,79.37"/><polygon class="st0" points="133.23,70.87 110.55,70.87 113.39,79.37 130.39,79.37"/><polygon class="st0" points="99.21,70.87 76.54,70.87 79.37,79.37 96.38,79.37"/><polygon class="st0" points="65.2,70.87 42.52,70.87 45.35,79.37 62.36,79.37"/><polygon class="st0" points="19.84,70.87 8.5,70.87 11.34,79.37 19.84,79.37"/><rect x="5.67" y="178.58" transform="matrix(-1 -4.489843e-11 4.489843e-11 -1 277.7952 362.8347)" class="st1" width="266.46" height="5.67"/><rect x="0" y="187.09" transform="matrix(-1 -4.489932e-11 4.489932e-11 -1 277.7952 379.8426)" class="st1" width="277.8" height="5.67"/><path class="st1" d="M56.69 39.69v-8.5h8.5v8.5h8.5v-8.5h-8.5v-8.5h-.38L138.9.0l138.9 42.52v5.67H48.19v-8.5h8.5zm-42.52.0v8.5h17.01v-8.5h8.5 8.5v-8.5h8.5v-6.02l-34 10.41v4.11H14.17zM0 42.52v5.67h5.67v-7.4L0 42.52z"/><path class="st1" d="M31.18 59.53v8.5h-8.5v-8.5h8.5zm17.01.0v8.5H82.2v-8.5h8.5v8.5h181.42V51.02H65.2v8.5h-8.5H48.19zM5.67 51.02v8.5h8.5 8.5v-8.5h-17zm34.01 8.51v-8.5h-8.5v8.5h8.5z"/><polygon class="st0" points="96.38,82.2 96.38,158.74 87.87,158.74 87.87,167.24 96.38,167.24 96.38,175.75 79.37,175.75 79.37,127.56 87.87,127.56 87.87,119.06 79.37,119.06 79.37,102.05 87.87,102.05 87.87,93.54 79.37,93.54 79.37,82.2"/><path class="st0" d="M28.35 167.24h-8.5v-8.5-8.5h8.5v17zM19.84 90.71v8.5h8.5V82.2h-8.5V90.71zm0 51.02h-8.5v8.5h8.5v-8.5zm0-8.5v-8.5h-8.5v8.5h8.5zm0-17.01v8.5h8.5v-17.01h-8.5v-8.5h-8.5v17.01h8.5z"/><path class="st0" d="M45.35 136.06v-8.5h8.5v8.5h-8.5zm17.01.0h-8.5v8.5 8.5h-8.5v22.68h8.5v-8.5h8.5V136.06zm-8.5-34.01v8.5h-8.5v8.5h8.5v8.5h8.5V82.2H45.35v19.84h8.51z"/></g><g id="coq"><rect x="164.59" y="27.05" transform="matrix(0.7071 0.7071 -0.7071 0.7071 69.9916 -109.558)" class="st2" width="5.31" height="5.31"/><path class="st3" d="M138.57 18.05l-4.49 2.86-2.36-5.31L138.57 18.05zm-2.09-2.93 2.08 2.93.34-8.13L136.48 15.12zm2.09 2.93 8.04 5.12-1.17-8.41-6.87 3.29zm10.44-5.53-3.57 2.24 2.7 2.3 3.45 2.94L149.01 12.52z"/><path class="st4" d="M138.57 18.05l.34-8.13 6.54 4.84-6.88 3.29zm-2.09-2.93-4.77.48 6.85 2.46L136.48 15.12zm10.13 8.05 4.98-3.17-6.15-5.24L146.61 23.17z"/><path class="st2" d="M144.7 38.13l-7.16 4.39-7.15-16.44 7.91-5.06 5.72 3.64-4.14 2.65L144.7 38.13zm2.37-1.45 4.37-2.68-7.55-4.29L147.07 36.68zm7.13-8.56-5.47-3.48-5.46 3.48H154.2z"/><rect x="107.89" y="27.11" transform="matrix(0.7071 0.7071 -0.7071 0.7071 53.4258 -69.4538)" class="st2" width="5.31" height="5.31"/></g></g></svg>